<svg width="211" height="50" viewBox="0 0 211 50" fill="none" xmlns="http://www.w3.org/2000/svg">
<path fill-rule="evenodd" clip-rule="evenodd" d="M5.69958 46.5H5.09961V43.2L5.19958 43.3L3.59961 46.5H3.09961V42.2H3.69958V45.6001L3.59961 45.5L5.19958 42.2H5.69958V46.5ZM9.59961 46.6001C9.19961 46.6001 8.89958 46.5 8.69958 46.3C8.49958 46.1 8.39966 45.8 8.39966 45.5V45.3H8.99963V45.5C8.99963 45.7 9.09958 45.9 9.19958 46C9.29958 46.1 9.49958 46.2 9.69958 46.2C9.89958 46.2 9.99958 46.1 10.1996 46C10.2996 45.9 10.3997 45.7001 10.3997 45.6001V45.1001C10.3997 45.0001 10.2996 44.8 10.1996 44.8C10.0996 44.7 9.89968 44.7 9.79968 44.7H9.39966V44.2H9.79968C9.99968 44.2 10.0996 44.2001 10.1996 44.1001C10.2996 44.0001 10.2997 43.9 10.2997 43.8V43.3C10.2997 43.1 10.2996 42.9999 10.0996 42.8999C9.99961 42.7999 9.89958 42.8 9.69958 42.8C9.49958 42.8 9.39968 42.7999 9.29968 42.8999C9.19968 42.9999 9.19958 43.1 9.19958 43.3V43.5H8.59961V43.3C8.59961 43 8.69966 42.7 8.89966 42.5C9.09966 42.3 9.39958 42.2 9.69958 42.2C10.0996 42.2 10.2996 42.3 10.4996 42.5C10.6996 42.7 10.7997 42.9 10.7997 43.3V43.7C10.7997 43.8 10.7996 44.0001 10.6996 44.1001C10.5996 44.2001 10.4997 44.2999 10.3997 44.3999C10.4997 44.3999 10.6996 44.5001 10.6996 44.6001C10.7996 44.7001 10.7997 44.9001 10.7997 45.1001V45.6001C10.7997 46.0001 10.6996 46.1999 10.4996 46.3999C10.2996 46.4999 9.99961 46.6001 9.59961 46.6001ZM13.1996 46.5V46H13.2997C13.3997 46 13.4996 45.9999 13.4996 45.8999C13.5996 45.7999 13.5996 45.7 13.6996 45.5C13.6996 45.3 13.7997 45.0999 13.7997 44.8999V42.2H14.3997V45C14.3997 45.5 14.2996 45.9001 14.1996 46.1001C13.9996 46.3001 13.7996 46.5 13.4996 46.5H13.1996ZM13.0996 47.6001H13.6996V46H13.0996V47.6001ZM13.0996 46.5H16.1996V45.8999H13.0996V46.5ZM15.9996 47.6001V46H16.5996V47.6001H15.9996ZM15.4996 46.5V42.2H16.0996V46.5H15.4996ZM14.1996 42.8H15.5996V42.2H14.1996V42.8ZM20.4996 46.6001C20.0996 46.6001 19.7996 46.5 19.4996 46.2C19.2996 45.9 19.1996 45.6001 19.1996 45.1001V43.6001C19.1996 43.1001 19.2996 42.7 19.4996 42.5C19.6996 42.2 19.9997 42.1001 20.3997 42.1001C20.7997 42.1001 21.0997 42.2 21.3997 42.5C21.5997 42.7 21.6996 43.1 21.6996 43.5V44.6001H19.4996V44H21.0996V43.5C21.0996 43.2 20.9997 42.9999 20.8997 42.8999C20.7997 42.7999 20.5997 42.7 20.3997 42.7C20.1997 42.7 19.9997 42.7999 19.8997 42.8999C19.7997 43.0999 19.6996 43.3001 19.6996 43.6001V45.2C19.6996 45.5 19.7997 45.7 19.8997 45.8C19.9997 46 20.1997 46 20.3997 46C20.5997 46 20.7997 45.9 20.8997 45.8C20.9997 45.7 21.0996 45.5 21.0996 45.3H21.6996C21.6996 45.7 21.5997 46 21.3997 46.2C21.1997 46.5 20.8996 46.6001 20.4996 46.6001ZM24.1996 46.6001V46C24.2996 46 24.3996 45.9999 24.4996 45.8999C24.5996 45.7999 24.5996 45.7001 24.5996 45.6001V42.3H25.1996V45.7C25.1996 46 25.0996 46.1999 24.9996 46.3999C24.6996 46.4999 24.4996 46.6001 24.1996 46.6001ZM26.2997 46.5V42.2H26.8997V46.5H26.2997ZM25.0996 42.8H26.4996V42.2H25.0996V42.8ZM32.3997 46.5H31.7997V43.2L31.8997 43.3L30.2997 46.5H29.7997V42.2H30.3997V45.6001L30.2997 45.5L31.8997 42.2H32.3997V46.5ZM37.5996 45.1001H36.4996C36.0996 45.1001 35.8996 45 35.6996 44.8C35.4996 44.6 35.3997 44.3 35.3997 44V43.5C35.3997 43.1 35.4996 42.9 35.6996 42.7C35.8996 42.5 36.1996 42.3999 36.5996 42.3999H37.5996V43H36.5996C36.3996 43 36.1996 43.1 36.0996 43.2C35.9996 43.3 35.8997 43.5 35.8997 43.7V44C35.8997 44.2 35.9996 44.4 36.0996 44.5C36.1996 44.6 36.3996 44.7 36.5996 44.7H37.5996V45.1001ZM37.8997 46.5V42.2H37.2997V46.5H37.8997ZM35.9996 46.5L36.6996 44.8L36.0996 44.6001L35.2997 46.3999H35.9996V46.5ZM48.4996 46.5H47.8997V43.2L47.9996 43.3L46.3997 46.5H45.8997V42.2H46.4996V45.6001L46.3997 45.5L47.9996 42.2H48.4996V46.5ZM52.3997 46.6001C51.9997 46.6001 51.6996 46.5 51.4996 46.3C51.2996 46.1 51.1996 45.8 51.1996 45.5V45.3H51.7996V45.5C51.7996 45.7 51.8996 45.9 51.9996 46C52.0996 46.1 52.2996 46.2 52.4996 46.2C52.6996 46.2 52.7996 46.1 52.9996 46C53.0996 45.9 53.1996 45.7001 53.1996 45.6001V45.1001C53.1996 45.0001 53.0996 44.8 52.9996 44.8C52.8996 44.7 52.6996 44.7 52.5996 44.7H52.1996V44.2H52.5996C52.7996 44.2 52.8996 44.2001 52.9996 44.1001C53.0996 44.0001 53.0996 43.9 53.0996 43.8V43.3C53.0996 43.1 53.0997 42.9999 52.8997 42.8999C52.7997 42.7999 52.6996 42.8 52.4996 42.8C52.2996 42.8 52.1996 42.7999 52.0996 42.8999C51.9996 42.9999 51.9996 43.1 51.9996 43.3V43.5H51.3997V43.3C51.3997 43 51.4996 42.7 51.6996 42.5C51.8996 42.3 52.1996 42.2 52.4996 42.2C52.8996 42.2 53.0996 42.3 53.2996 42.5C53.4996 42.7 53.5996 42.9 53.5996 43.3V43.7C53.5996 43.8 53.5996 44.0001 53.4996 44.1001C53.3996 44.2001 53.2996 44.2999 53.1996 44.3999C53.2996 44.3999 53.4996 44.5001 53.4996 44.6001C53.5996 44.7001 53.5996 44.9001 53.5996 45.1001V45.6001C53.5996 46.0001 53.4996 46.1999 53.2996 46.3999C53.0996 46.4999 52.7997 46.6001 52.3997 46.6001ZM62.7996 46.6001C62.3996 46.6001 62.0996 46.5 61.7996 46.3C61.5996 46.1 61.4996 45.8 61.4996 45.3V43.5C61.4996 43.1 61.5996 42.7 61.7996 42.5C61.9996 42.3 62.2996 42.1001 62.7996 42.1001C63.1996 42.1001 63.4996 42.2 63.7996 42.5C63.9996 42.7 64.0996 43.1 64.0996 43.5H63.4996C63.4996 43.2 63.3996 42.9999 63.2996 42.8999C63.1996 42.7999 62.9996 42.7 62.7996 42.7C62.5996 42.7 62.3996 42.7999 62.2996 42.8999C62.1996 42.9999 62.0996 43.2 62.0996 43.5V45.3C62.0996 45.5 62.1996 45.7 62.2996 45.8C62.3996 45.9 62.5996 46 62.7996 46C62.9996 46 63.1996 45.9 63.2996 45.8C63.3996 45.7 63.4996 45.5 63.4996 45.2H64.0996C64.0996 45.6 63.9996 45.9 63.7996 46.2C63.4996 46.5 63.1996 46.6001 62.7996 46.6001ZM67.1996 46.5V42.2H67.7996V46.5H67.1996ZM66.2996 42.8H68.5996V42.2H66.2996V42.8ZM72.2996 46.6001C71.8996 46.6001 71.5996 46.5 71.2996 46.2C71.0996 45.9 70.9996 45.6001 70.9996 45.1001V43.6001C70.9996 43.1001 71.0996 42.7 71.2996 42.5C71.4996 42.2 71.7996 42.1001 72.1996 42.1001C72.5996 42.1001 72.8996 42.2 73.1996 42.5C73.3996 42.7 73.4996 43.1 73.4996 43.5V44.6001H71.2996V44H72.8997V43.5C72.8997 43.2 72.7996 42.9999 72.6996 42.8999C72.5996 42.7999 72.3996 42.7 72.1996 42.7C71.9996 42.7 71.7996 42.7999 71.6996 42.8999C71.5996 43.0999 71.4996 43.3001 71.4996 43.6001V45.2C71.4996 45.5 71.5996 45.7 71.6996 45.8C71.7996 46 71.9996 46 72.1996 46C72.3996 46 72.5996 45.9 72.6996 45.8C72.7996 45.7 72.8997 45.5 72.8997 45.3H73.4996C73.4996 45.7 73.3996 46 73.1996 46.2C73.0996 46.5 72.7996 46.6001 72.2996 46.6001ZM78.2996 44.7L77.7996 44.3L78.5996 42.3H79.1996L78.2996 44.7ZM76.5996 46.5V42.2H77.1996V46.5H76.5996ZM78.7996 46.5H79.4996L78.3997 44.1001L77.8997 44.5L78.7996 46.5ZM76.9996 44.7H78.4996V44.2H76.9996V44.7ZM81.6996 46.6001V46C81.7996 46 81.8996 45.9999 81.9996 45.8999C82.0996 45.7999 82.0996 45.7001 82.0996 45.6001V42.3H82.6996V45.7C82.6996 46 82.5996 46.1999 82.4996 46.3999C82.1996 46.4999 81.9996 46.6001 81.6996 46.6001ZM83.7996 46.5V42.2H84.3997V46.5H83.7996ZM82.5996 42.8H83.9996V42.2H82.5996V42.8ZM89.3997 46.5V43.3C89.3997 43.1 89.2996 42.9 89.1996 42.8C89.0996 42.7 88.8996 42.6001 88.6996 42.6001C88.4996 42.6001 88.2996 42.7 88.1996 42.8C88.0996 42.9 87.9996 43.1 87.9996 43.3H87.3997C87.3997 42.9 87.4996 42.5999 87.6996 42.3999C87.8996 42.1999 88.1996 42.1001 88.5996 42.1001C88.9996 42.1001 89.2996 42.1999 89.4996 42.3999C89.6996 42.5999 89.7996 42.9 89.7996 43.3V46.5H89.3997ZM88.4996 46.6001C88.6996 46.6001 88.8996 46.6 89.0996 46.5C89.1996 46.4 89.3997 46.3 89.3997 46.2C89.4997 46.1 89.4996 45.9 89.4996 45.7L89.3997 45.3C89.3997 45.6 89.2996 45.7999 89.1996 45.8999C89.0996 45.9999 88.8996 46.1001 88.5996 46.1001C88.3996 46.1001 88.1996 45.9999 88.0996 45.8999C87.9996 45.7999 87.8997 45.6 87.8997 45.3C87.8997 45 87.9996 44.7 88.0996 44.5C88.1996 44.3 88.3996 44.2 88.6996 44.2H89.4996L89.3997 43.8H88.5996C88.1996 43.8 87.7996 43.9 87.5996 44.2C87.3996 44.4 87.2996 44.8 87.2996 45.3C87.2996 45.7 87.3996 46 87.5996 46.2C87.7996 46.5 88.0996 46.6001 88.4996 46.6001ZM100.6 46.5H99.9996V43.2L100.1 43.3L98.4996 46.5H97.9996V42.2H98.5996V45.6001L98.4996 45.5L100.1 42.2H100.6V46.5ZM110.6 46.5V42.2H111.2V46.5H110.6ZM108.7 46.5V42.2H109.3V46.5H108.7ZM109.2 44.7H110.9V44.1001H109.2V44.7ZM115.5 46.6001C115.1 46.6001 114.8 46.5 114.5 46.2C114.3 45.9 114.2 45.6001 114.2 45.1001V43.6001C114.2 43.1001 114.3 42.7 114.5 42.5C114.7 42.2 115 42.1001 115.4 42.1001C115.8 42.1001 116.1 42.2 116.4 42.5C116.6 42.7 116.7 43.1 116.7 43.5V44.6001H114.5V44H116.1V43.5C116.1 43.2 116 42.9999 115.9 42.8999C115.8 42.7999 115.6 42.7 115.4 42.7C115.2 42.7 115 42.7999 114.9 42.8999C114.8 43.0999 114.7 43.3001 114.7 43.6001V45.2C114.7 45.5 114.8 45.7 114.9 45.8C115 46 115.2 46 115.4 46C115.6 46 115.8 45.9 115.9 45.8C116 45.7 116.1 45.5 116.1 45.3H116.7C116.7 45.7 116.6 46 116.4 46.2C116.2 46.5 115.9 46.6001 115.5 46.6001ZM119.7 48.3V42.2H120.3V48.3H119.7ZM121.2 46.6001C121.5 46.6001 121.8 46.5 122 46.2C122.2 46 122.3 45.6 122.3 45.2V43.5C122.3 43.1 122.2 42.7 122 42.5C121.8 42.3 121.6 42.1001 121.2 42.1001C121 42.1001 120.8 42.2 120.6 42.3C120.4 42.4 120.3 42.5999 120.2 42.8999L120.3 43.5C120.3 43.3 120.3 43.2 120.4 43C120.5 42.9 120.5 42.8 120.6 42.7C120.7 42.6 120.8 42.6001 121 42.6001C121.2 42.6001 121.4 42.7 121.5 42.8C121.6 43 121.7 43.1999 121.7 43.3999V45.1001C121.7 45.4001 121.6 45.6 121.5 45.8C121.4 46 121.2 46 121 46C120.9 46 120.7 45.9999 120.6 45.8999C120.5 45.7999 120.4 45.7001 120.4 45.6001C120.3 45.5001 120.3 45.3001 120.3 45.1001L120.2 45.8C120.3 46 120.4 46.2 120.6 46.3C120.8 46.5 121 46.6001 121.2 46.6001ZM128.7 46.5L127.4 44.5L127.8 44.1001L129.2 46.5H128.7ZM124.6 46.5L126 44.1001L126.4 44.5L125.1 46.5H124.6ZM126 44.7L126.4 44.3L125.3 42.3H124.7L126 44.7ZM126.7 46.5V42.2H127.3V46.5H126.7ZM126 44.7H128V44.2H126V44.7ZM127.9 44.7L129.2 42.3H128.6L127.5 44.3L127.9 44.7ZM133.9 46.5V43.3C133.9 43.1 133.8 42.9 133.7 42.8C133.6 42.7 133.4 42.6001 133.2 42.6001C133 42.6001 132.8 42.7 132.7 42.8C132.6 42.9 132.5 43.1 132.5 43.3H131.9C131.9 42.9 132 42.5999 132.2 42.3999C132.4 42.1999 132.7 42.1001 133.1 42.1001C133.5 42.1001 133.8 42.1999 134 42.3999C134.2 42.5999 134.3 42.9 134.3 43.3V46.5H133.9ZM133 46.6001C133.2 46.6001 133.4 46.6 133.6 46.5C133.7 46.4 133.9 46.3 133.9 46.2C134 46.1 134 45.9 134 45.7L133.9 45.3C133.9 45.6 133.8 45.7999 133.7 45.8999C133.6 45.9999 133.4 46.1001 133.1 46.1001C132.9 46.1001 132.7 45.9999 132.6 45.8999C132.5 45.7999 132.4 45.6 132.4 45.3C132.4 45 132.5 44.7 132.6 44.5C132.7 44.3 132.9 44.2 133.2 44.2H134L133.9 43.8H133.1C132.7 43.8 132.3 43.9 132.1 44.2C131.9 44.4 131.8 44.8 131.8 45.3C131.8 45.7 131.9 46 132.1 46.2C132.3 46.5 132.6 46.6001 133 46.6001ZM138 46.5V45.8999H139.1C139.2 45.8999 139.3 45.9 139.3 45.8C139.4 45.7 139.4 45.6 139.4 45.5V44.8999C139.4 44.7999 139.4 44.6001 139.3 44.6001C139.2 44.5001 139.1 44.5 139 44.5H138.1V43.8999H139C139.3 43.8999 139.4 43.8 139.4 43.5V43C139.4 42.8 139.3 42.7 139.1 42.7H138.1V42.1001H139.2C139.5 42.1001 139.7 42.2 139.8 42.3C139.9 42.4 140 42.5999 140 42.8999V43.5C140 43.7 140 43.7999 139.9 43.8999C139.8 43.9999 139.7 44.1001 139.5 44.1001C139.7 44.1001 139.8 44.2 139.9 44.3C140 44.4 140.1 44.6 140.1 44.8V45.5C140.1 45.8 140 46.0001 139.9 46.1001C139.7 46.3001 139.5 46.3 139.2 46.3H138V46.5ZM137.5 46.5H138.1V42.2H137.5V46.5ZM144.1 46.6001C143.7 46.6001 143.4 46.5 143.1 46.2C142.9 45.9 142.8 45.6001 142.8 45.1001V43.6001C142.8 43.1001 142.9 42.7 143.1 42.5C143.3 42.2 143.6 42.1001 144 42.1001C144.4 42.1001 144.7 42.2 145 42.5C145.2 42.7 145.3 43.1 145.3 43.5V44.6001H143.1V44H144.7V43.5C144.7 43.2 144.6 42.9999 144.5 42.8999C144.4 42.7999 144.2 42.7 144 42.7C143.8 42.7 143.6 42.7999 143.5 42.8999C143.4 43.0999 143.3 43.3001 143.3 43.6001V45.2C143.3 45.5 143.4 45.7 143.5 45.8C143.6 46 143.8 46 144 46C144.2 46 144.4 45.9 144.5 45.8C144.6 45.7 144.7 45.5 144.7 45.3H145.3C145.3 45.7 145.2 46 145 46.2C144.8 46.5 144.5 46.6001 144.1 46.6001ZM148.8 44.7V44.1001H150V44.7H148.8ZM148.4 46.5H149V42.2H148.4V46.5ZM150.9 46.6001C151.3 46.6001 151.6 46.5 151.8 46.3C152 46.1 152.1 45.7999 152.1 45.3999V43.3999C152.1 42.9999 152 42.7 151.8 42.5C151.6 42.3 151.3 42.2 150.9 42.2C150.5 42.2 150.2 42.3 150 42.5C149.8 42.7 149.7 42.9999 149.7 43.3999V45.3999C149.7 45.7999 149.8 46.1 150 46.3C150.2 46.5 150.5 46.6001 150.9 46.6001ZM150.9 46.1001C150.7 46.1001 150.5 45.9999 150.4 45.8999C150.3 45.7999 150.2 45.5999 150.2 45.3999V43.3999C150.2 43.1999 150.3 42.9999 150.4 42.8999C150.5 42.7999 150.7 42.7 150.9 42.7C151.1 42.7 151.3 42.7999 151.4 42.8999C151.5 42.9999 151.6 43.1999 151.6 43.3999V45.3999C151.6 45.5999 151.5 45.7999 151.4 45.8999C151.3 45.9999 151.1 46.1001 150.9 46.1001ZM155.4 46.5V45.8999H158V46.5H155.4ZM156.4 46.5H157V42.2H156.4V46.5ZM155.1 46.5H155.7V42.2H155.1V46.5ZM158.3 47.6001V46H158.9V47.6001H158.3ZM157.7 46.5H158.3V42.2H157.7V46.5ZM162.7 46.6001C162.3 46.6001 162 46.5 161.7 46.2C161.5 45.9 161.4 45.6001 161.4 45.1001V43.6001C161.4 43.1001 161.5 42.7 161.7 42.5C161.9 42.2 162.2 42.1001 162.6 42.1001C163 42.1001 163.3 42.2 163.6 42.5C163.8 42.7 163.9 43.1 163.9 43.5V44.6001H161.7V44H163.3V43.5C163.3 43.2 163.2 42.9999 163.1 42.8999C163 42.7999 162.8 42.7 162.6 42.7C162.4 42.7 162.2 42.7999 162.1 42.8999C162 43.0999 161.9 43.3001 161.9 43.6001V45.2C161.9 45.5 162 45.7 162.1 45.8C162.2 46 162.4 46 162.6 46C162.8 46 163 45.9 163.1 45.8C163.2 45.7 163.3 45.5 163.3 45.3H163.9C163.9 45.7 163.8 46 163.6 46.2C163.4 46.5 163.1 46.6001 162.7 46.6001ZM169.4 46.5H168.8V43.2L168.9 43.3L167.3 46.5H166.8V42.2H167.4V45.6001L167.3 45.5L168.9 42.2H169.4V46.5ZM168.1 41.3999C167.8 41.3999 167.5 41.3001 167.4 41.1001C167.2 40.9001 167.1 40.7 167.1 40.3V40H167.6V40.3C167.6 40.7 167.7 40.8999 168 40.8999H168.1C168.4 40.8999 168.5 40.7 168.5 40.3V40H169V40.3C169 40.6 168.9 40.9001 168.7 41.1001C168.7 41.3001 168.5 41.3999 168.1 41.3999ZM178.8 46.6001C178.4 46.6001 178.1 46.5 177.8 46.3C177.6 46.1 177.5 45.8 177.5 45.3V43.5C177.5 43.1 177.6 42.7 177.8 42.5C178 42.3 178.3 42.1001 178.8 42.1001C179.2 42.1001 179.5 42.2 179.8 42.5C180 42.7 180.1 43.1 180.1 43.5H179.5C179.5 43.2 179.4 42.9999 179.3 42.8999C179.2 42.7999 179 42.7 178.8 42.7C178.6 42.7 178.4 42.7999 178.3 42.8999C178.2 42.9999 178.1 43.2 178.1 43.5V45.3C178.1 45.5 178.2 45.7 178.3 45.8C178.4 45.9 178.6 46 178.8 46C179 46 179.2 45.9 179.3 45.8C179.4 45.7 179.5 45.5 179.5 45.2H180.1C180.1 45.6 180 45.9 179.8 46.2C179.5 46.5 179.2 46.6001 178.8 46.6001ZM183.2 46.5V42.2H183.8V46.5H183.2ZM182.3 42.8H184.6V42.2H182.3V42.8ZM189.4 46.5V43.3C189.4 43.1 189.3 42.9 189.2 42.8C189.1 42.7 188.9 42.6001 188.7 42.6001C188.5 42.6001 188.3 42.7 188.2 42.8C188.1 42.9 188 43.1 188 43.3H187.4C187.4 42.9 187.5 42.5999 187.7 42.3999C187.9 42.1999 188.2 42.1001 188.6 42.1001C189 42.1001 189.3 42.1999 189.5 42.3999C189.7 42.5999 189.8 42.9 189.8 43.3V46.5H189.4ZM188.4 46.6001C188.6 46.6001 188.8 46.6 189 46.5C189.1 46.4 189.3 46.3 189.3 46.2C189.4 46.1 189.4 45.9 189.4 45.7L189.3 45.3C189.3 45.6 189.2 45.7999 189.1 45.8999C189 45.9999 188.8 46.1001 188.5 46.1001C188.3 46.1001 188.1 45.9999 188 45.8999C187.9 45.7999 187.8 45.6 187.8 45.3C187.8 45 187.9 44.7 188 44.5C188.1 44.3 188.3 44.2 188.6 44.2H189.4L189.3 43.8H188.5C188.1 43.8 187.7 43.9 187.5 44.2C187.3 44.4 187.2 44.8 187.2 45.3C187.2 45.7 187.3 46 187.5 46.2C187.8 46.5 188.1 46.6001 188.4 46.6001ZM192.7 46.6001V46C192.8 46 192.9 45.9999 193 45.8999C193.1 45.7999 193.1 45.7001 193.1 45.6001V42.3H193.7V45.7C193.7 46 193.6 46.1999 193.5 46.3999C193.2 46.4999 193 46.6001 192.7 46.6001ZM194.8 46.5V42.2H195.4V46.5H194.8ZM193.6 42.8H195V42.2H193.6V42.8ZM200.9 46.5H200.3V43.2L200.4 43.3L198.8 46.5H198.3V42.2H198.9V45.6001L198.8 45.5L200.4 42.2H200.9V46.5Z" fill="#3B3B3A"/>
<path d="M20.9987 34.3105C18.7173 35.4876 16.2275 36.0762 13.5294 36.0762C9.93532 36.0762 7.15905 35.0241 5.20056 32.9197C3.24207 30.8154 2.26283 27.8256 2.26283 23.9502C2.26283 20.0853 3.2577 17.0955 5.24744 14.9808C7.2476 12.8556 10.0655 11.793 13.7012 11.793C15.7639 11.793 18.186 12.1316 20.9675 12.8087V15.8871C17.8005 14.7933 15.3576 14.2463 13.6387 14.2463C11.1281 14.2463 9.18526 15.0954 7.81015 16.7934C6.43504 18.4915 5.74748 20.8875 5.74748 23.9815C5.74748 26.9401 6.48192 29.2684 7.95078 30.9664C9.41965 32.6645 11.4302 33.5135 13.9825 33.5135C16.1598 33.5135 18.4985 32.8416 20.9987 31.4977V34.3105ZM30.8683 35.498V15.8295H23.0633V13.4954H41.7953V15.8295H33.9903V35.498H30.8683ZM44.9024 35.498V13.4954H57.1972V15.8295H48.0244V22.8911H55.7105V25.1955H48.0244V33.164H57.8364V35.498H44.9024ZM64.5264 25.3144V35.498H61.4044V13.4954H64.5264V22.9952H64.6751C65.4977 22.9952 66.1171 22.797 66.5334 22.4005C66.9497 21.9942 67.6732 20.9139 68.7039 19.1596L69.6405 17.554L70.4136 16.1863C70.9984 15.1852 71.5881 14.4865 72.1827 14.0901C72.7774 13.6837 73.5207 13.4805 74.4127 13.4805L74.7993 13.4954V15.7849C74.6902 15.775 74.611 15.77 74.5614 15.77C73.7883 15.77 72.9855 16.5183 72.153 18.0149L71.5732 19.0704L71.1123 19.8732C70.3591 21.2211 69.7793 22.1478 69.3729 22.6533C68.9666 23.1587 68.4512 23.6047 67.8268 23.9913C68.8972 24.3481 69.7297 24.8634 70.3244 25.5374C70.929 26.2014 71.6773 27.4453 72.5693 29.2689L73.3275 30.8002C73.4167 30.9885 73.6942 31.5683 74.16 32.5396C74.6853 33.6595 75.1957 34.6457 75.6913 35.498H72.3909L72.153 35.0372L71.1867 33.0896L69.9379 30.5326C68.6593 27.9359 67.361 26.1965 66.0428 25.3144H64.5264ZM77.0739 35.498V32.7477C79.2048 32.4504 80.6022 31.3156 81.2663 29.3433C81.96 27.2917 82.3069 22.4749 82.3069 14.8929V13.4954H95.1368V35.498H92.0148V15.7849H85.4141V16.2755C85.4141 22.9555 85.0374 27.4948 84.2842 29.8933C83.7093 31.717 82.8719 33.0599 81.7717 33.9222C80.6716 34.7745 79.1056 35.2998 77.0739 35.498ZM109.825 36.0481C106.703 36.0481 104.206 35.0025 102.332 32.9112C100.469 30.8101 99.5374 28.0053 99.5374 24.4967C99.5374 20.9882 100.469 18.1883 102.332 16.0971C104.206 13.9959 106.703 12.9453 109.825 12.9453C112.947 12.9453 115.44 13.9959 117.303 16.0971C119.176 18.1883 120.113 20.9882 120.113 24.4967C120.113 28.0053 119.176 30.8101 117.303 32.9112C115.44 35.0025 112.947 36.0481 109.825 36.0481ZM109.825 33.714C112.015 33.714 113.725 32.9013 114.954 31.2759C116.183 29.6406 116.798 27.3709 116.798 24.467C116.798 21.5829 116.183 19.333 114.954 17.7175C113.725 16.0921 112.015 15.2794 109.825 15.2794C107.635 15.2794 105.925 16.0921 104.696 17.7175C103.467 19.333 102.853 21.5829 102.853 24.467C102.853 27.3709 103.467 29.6406 104.696 31.2759C105.925 32.9013 107.635 33.714 109.825 33.714ZM139.365 35.498V15.8295H131.56V13.4954H150.292V15.8295H142.487V35.498H139.365ZM150.812 35.498L159.539 13.4954H162.631L171.224 35.498H167.85L165.456 29.4027H156.135L153.711 35.498H150.812ZM157.042 27.0835H164.549L160.803 17.5986L157.042 27.0835ZM172.042 35.498V32.7477C174.173 32.4504 175.57 31.3156 176.234 29.3433C176.928 27.2917 177.275 22.4749 177.275 14.8929V13.4954H190.105V35.498H186.983V15.7849H180.382V16.2755C180.382 22.9555 180.006 27.4948 179.252 29.8933C178.678 31.717 177.84 33.0599 176.74 33.9222C175.64 34.7745 174.074 35.2998 172.042 35.498ZM195.799 35.498V13.4954H198.921V22.9357H200.601C202.345 22.9357 203.614 23.0101 204.407 23.1587C205.2 23.2975 205.953 23.5948 206.666 24.0507C208.351 25.1211 209.194 26.7019 209.194 28.7932C209.194 31.2412 208.237 33.0649 206.325 34.2641C205.016 35.0867 202.841 35.498 199.798 35.498H195.799ZM198.921 33.2086H200.021C202.162 33.2086 203.653 32.9013 204.496 32.2869C205.546 31.5138 206.072 30.4186 206.072 29.0013C206.072 27.6732 205.626 26.7119 204.734 26.1172C203.852 25.5225 202.424 25.2252 200.452 25.2252H198.921V33.2086Z" fill="#3B3B3A"/>
<path fill-rule="evenodd" clip-rule="evenodd" d="M116.2 6.29932C122.5 6.49932 120.1 6.69922 124.1 3.19922C123.8 4.59922 113.6 26.0993 113.1 27.9993L122.6 17.8992C125.8 14.1992 132.3 7.89917 135.1 4.39917L134.8 3.19922H115.5C115.8 4.19922 116 5.29932 116.2 6.29932Z" fill="#3B3B3A"/>
<path fill-rule="evenodd" clip-rule="evenodd" d="M116.2 33.2996C122.5 33.0996 120.1 32.8994 124.1 36.3994C123.8 34.9994 113.6 13.4996 113.1 11.5996L122.6 21.6995C125.8 25.3995 132.3 31.6995 135.1 35.1995L134.8 36.3994H115.5C115.8 35.2994 116 34.1996 116.2 33.2996Z" fill="#3B3B3A"/>
</svg>
