<svg width="140" height="33" viewBox="0 0 140 33" fill="none" xmlns="http://www.w3.org/2000/svg">
<path fill-rule="evenodd" clip-rule="evenodd" d="M3.89978 30.5998H3.49976V28.3998L3.59973 28.4998L2.59973 30.5998H2.2998V27.7998H2.69971V29.9998L2.59973 29.8998L3.59973 27.6998H3.89978V30.5998ZM6.49976 30.5998C6.29976 30.5998 6.09978 30.4998 5.89978 30.3998C5.79978 30.2998 5.69971 30.0998 5.69971 29.8998V29.7998H6.09973V29.8998C6.09973 29.9998 6.09971 30.0998 6.19971 30.1998C6.29971 30.2998 6.39976 30.2998 6.49976 30.2998C6.59976 30.2998 6.6998 30.2998 6.7998 30.1998C6.8998 30.0998 6.89978 29.9998 6.89978 29.8998V29.5998C6.89978 29.4998 6.8998 29.3998 6.7998 29.3998C6.6998 29.2998 6.59976 29.2998 6.49976 29.2998H6.19971V28.9998H6.49976C6.59976 28.9998 6.69971 28.9998 6.69971 28.8998C6.79971 28.8998 6.7998 28.7998 6.7998 28.6998V28.3998C6.7998 28.2998 6.79971 28.1998 6.69971 28.1998C6.59971 28.0998 6.49978 28.0998 6.39978 28.0998C6.29978 28.0998 6.19973 28.0998 6.09973 28.1998C5.99973 28.2998 5.99976 28.2998 5.99976 28.3998V28.4998H5.59973V28.3998C5.59973 28.1998 5.6998 27.9998 5.7998 27.8998C5.8998 27.7998 6.0998 27.6998 6.2998 27.6998C6.4998 27.6998 6.69978 27.7998 6.89978 27.8998C6.99978 27.9998 7.09973 28.1998 7.09973 28.3998V28.6998C7.09973 28.7998 7.09976 28.8998 6.99976 28.8998C6.99976 28.9998 6.8998 28.9998 6.7998 29.0998C6.8998 29.0998 6.99976 29.1998 6.99976 29.2998C7.09976 29.3998 7.09973 29.4998 7.09973 29.5998V29.8998C7.09973 30.0998 6.99978 30.2998 6.89978 30.4998C6.89978 30.5998 6.69976 30.5998 6.49976 30.5998ZM8.7998 30.5998V30.2998H8.89978C8.99978 30.2998 8.99973 30.2998 9.09973 30.1998C9.09973 30.0998 9.19971 30.0998 9.19971 29.9998C9.19971 29.8998 9.19971 29.7998 9.19971 29.5998V27.7998H9.59973V29.5998C9.59973 29.8998 9.49978 30.1998 9.39978 30.2998C9.29978 30.4998 9.09978 30.4998 8.89978 30.4998H8.7998V30.5998ZM8.7998 31.2998H9.19971V30.1998H8.7998V31.2998ZM8.7998 30.5998H10.7998V30.1998H8.7998V30.5998ZM10.6997 31.2998V30.1998H11.0997V31.2998H10.6997ZM10.2998 30.5998V27.7998H10.6997V30.5998H10.2998ZM9.49976 28.0998H10.3998V27.6998H9.49976V28.0998ZM13.5997 30.5998C13.2997 30.5998 13.0998 30.4998 12.9998 30.3998C12.7998 30.1998 12.7998 29.9998 12.7998 29.6998V28.6998C12.7998 28.3998 12.8998 28.0998 12.9998 27.9998C13.0998 27.7998 13.3997 27.6998 13.5997 27.6998C13.8997 27.6998 14.0998 27.7998 14.1998 27.8998C14.2998 28.0998 14.3998 28.2998 14.3998 28.5998V29.2998H12.8998V28.8998H13.9998V28.5998C13.9998 28.3998 13.9998 28.2998 13.8998 28.1998C13.7998 28.0998 13.6997 28.0998 13.5997 28.0998C13.4997 28.0998 13.2998 28.1998 13.2998 28.2998C13.1998 28.3998 13.1997 28.5998 13.1997 28.6998V29.6998C13.1997 29.8998 13.1998 29.9998 13.2998 30.0998C13.3998 30.1998 13.4997 30.1998 13.5997 30.1998C13.6997 30.1998 13.7998 30.1998 13.8998 30.0998C13.9998 29.9998 13.9998 29.8998 13.9998 29.7998H14.3998C14.3998 30.0998 14.2998 30.2998 14.1998 30.3998C14.0998 30.5998 13.8997 30.5998 13.5997 30.5998ZM16.0997 30.5998V30.1998C16.1997 30.1998 16.1997 30.1998 16.2997 30.0998C16.2997 29.9998 16.3998 29.9998 16.3998 29.8998V27.6998H16.7997V29.8998C16.7997 30.0998 16.6997 30.2998 16.5997 30.3998C16.4997 30.5998 16.2997 30.5998 16.0997 30.5998ZM17.4998 30.5998V27.7998H17.8998V30.5998H17.4998ZM16.6998 28.0998H17.5997V27.6998H16.6998V28.0998ZM21.4998 30.5998H21.0997V28.3998L21.1998 28.4998L20.1998 30.5998H19.8998V27.7998H20.2997V29.9998L20.1998 29.8998L21.1998 27.6998H21.4998V30.5998ZM24.8998 29.5998H24.1998C23.9998 29.5998 23.7998 29.4998 23.6998 29.3998C23.5998 29.2998 23.4998 29.0998 23.4998 28.7998V28.3998C23.4998 28.1998 23.5998 27.9998 23.6998 27.7998C23.7998 27.6998 23.9997 27.5998 24.2997 27.5998H24.9998V27.9998H24.2997C24.1997 27.9998 24.0998 27.9998 23.9998 28.0998C23.8998 28.1998 23.8998 28.2998 23.8998 28.3998V28.5998C23.8998 28.6998 23.8998 28.8998 23.9998 28.8998C24.0998 28.9998 24.1997 28.9998 24.2997 28.9998H24.9998V29.5998H24.8998ZM25.0997 30.5998V27.7998H24.6998V30.5998H25.0997ZM23.8998 30.5998L24.3998 29.4998L23.9998 29.3998L23.4998 30.5998H23.8998ZM32.0997 30.5998H31.6998V28.3998L31.7997 28.4998L30.7997 30.5998H30.4998V27.7998H30.8998V29.9998L30.7997 29.8998L31.7997 27.6998H32.0997V30.5998ZM34.6998 30.5998C34.4998 30.5998 34.2997 30.4998 34.0997 30.3998C33.9997 30.2998 33.8998 30.0998 33.8998 29.8998V29.7998H34.2997V29.8998C34.2997 29.9998 34.2998 30.0998 34.3998 30.1998C34.4998 30.2998 34.5998 30.2998 34.6998 30.2998C34.7998 30.2998 34.8998 30.2998 34.9998 30.1998C35.0998 30.0998 35.0997 29.9998 35.0997 29.8998V29.5998C35.0997 29.4998 35.0998 29.3998 34.9998 29.3998C34.8998 29.2998 34.7998 29.2998 34.6998 29.2998H34.3998V28.9998H34.6998C34.7998 28.9998 34.8998 28.9998 34.8998 28.8998C34.9998 28.8998 34.9998 28.7998 34.9998 28.6998V28.3998C34.9998 28.2998 34.9998 28.1998 34.8998 28.1998C34.7998 28.0998 34.6997 28.0998 34.5997 28.0998C34.4997 28.0998 34.3997 28.0998 34.2997 28.1998C34.1997 28.2998 34.1998 28.2998 34.1998 28.3998V28.4998H33.7997V28.3998C33.7997 28.1998 33.8998 27.9998 33.9998 27.8998C34.0998 27.7998 34.2998 27.6998 34.4998 27.6998C34.6998 27.6998 34.8997 27.7998 35.0997 27.8998C35.1997 27.9998 35.2997 28.1998 35.2997 28.3998V28.6998C35.2997 28.7998 35.2998 28.8998 35.1998 28.8998C35.1998 28.9998 35.0998 28.9998 34.9998 29.0998C35.0998 29.0998 35.1998 29.1998 35.1998 29.2998C35.2998 29.3998 35.2997 29.4998 35.2997 29.5998V29.8998C35.2997 30.0998 35.1997 30.2998 35.0997 30.4998C35.0997 30.5998 34.8998 30.5998 34.6998 30.5998ZM41.4998 30.5998C41.1998 30.5998 40.9998 30.4998 40.8998 30.3998C40.7998 30.2998 40.6998 29.9998 40.6998 29.7998V28.5998C40.6998 28.2998 40.7998 28.0998 40.8998 27.8998C40.9998 27.6998 41.2998 27.6998 41.4998 27.6998C41.7998 27.6998 41.9997 27.7998 42.0997 27.8998C42.2997 28.0998 42.2997 28.2998 42.2997 28.5998H41.8998C41.8998 28.3998 41.8997 28.2998 41.7997 28.1998C41.6997 28.0998 41.5998 28.0998 41.3998 28.0998C41.2998 28.0998 41.0997 28.0998 41.0997 28.1998C40.9997 28.2998 40.9998 28.3998 40.9998 28.5998V29.7998C40.9998 29.9998 40.9997 30.0998 41.0997 30.1998C41.1997 30.2998 41.2998 30.2998 41.3998 30.2998C41.5998 30.2998 41.6997 30.2998 41.7997 30.1998C41.8997 30.0998 41.8998 29.9998 41.8998 29.7998H42.2997C42.2997 30.0998 42.1997 30.2998 42.0997 30.3998C41.9997 30.5998 41.7998 30.5998 41.4998 30.5998ZM44.3998 30.5998V27.7998H44.7997V30.5998H44.3998ZM43.7997 28.0998H45.2997V27.6998H43.7997V28.0998ZM47.7997 30.5998C47.4997 30.5998 47.2998 30.4998 47.1998 30.3998C46.9998 30.1998 46.9998 29.9998 46.9998 29.6998V28.6998C46.9998 28.3998 47.0998 28.0998 47.1998 27.9998C47.2998 27.7998 47.5997 27.6998 47.7997 27.6998C48.0997 27.6998 48.2998 27.7998 48.3998 27.8998C48.4998 28.0998 48.5997 28.2998 48.5997 28.5998V29.2998H47.0997V28.8998H48.1998V28.5998C48.1998 28.3998 48.1997 28.2998 48.0997 28.1998C47.9997 28.0998 47.8997 28.0998 47.7997 28.0998C47.6997 28.0998 47.4998 28.1998 47.4998 28.2998C47.3998 28.3998 47.3998 28.5998 47.3998 28.6998V29.6998C47.3998 29.8998 47.3998 29.9998 47.4998 30.0998C47.5998 30.1998 47.6997 30.1998 47.7997 30.1998C47.8997 30.1998 47.9997 30.1998 48.0997 30.0998C48.1997 29.9998 48.1998 29.8998 48.1998 29.7998H48.5997C48.5997 30.0998 48.4998 30.2998 48.3998 30.3998C48.2998 30.5998 48.0997 30.5998 47.7997 30.5998ZM51.7997 29.3998L51.4998 29.0998L51.9998 27.7998H52.3998L51.7997 29.3998ZM50.5997 30.5998V27.7998H50.9998V30.5998H50.5997ZM51.9998 30.5998H52.3998L51.6998 29.0998L51.3998 29.2998L51.9998 30.5998ZM50.8998 29.3998H51.8998V29.0998H50.8998V29.3998ZM53.9998 30.5998V30.1998C54.0998 30.1998 54.0998 30.1998 54.1998 30.0998C54.1998 29.9998 54.2997 29.9998 54.2997 29.8998V27.6998H54.6998V29.8998C54.6998 30.0998 54.5998 30.2998 54.4998 30.3998C54.2998 30.5998 54.1998 30.5998 53.9998 30.5998ZM55.3998 30.5998V27.7998H55.7997V30.5998H55.3998ZM54.4998 28.0998H55.3998V27.6998H54.4998V28.0998ZM59.0997 30.5998V28.4998C59.0997 28.2998 59.0998 28.1998 58.9998 28.0998C58.8998 27.9998 58.7997 27.9998 58.5997 27.9998C58.4997 27.9998 58.3997 27.9998 58.2997 28.0998C58.1997 28.1998 58.1998 28.2998 58.1998 28.4998H57.7997C57.7997 28.1998 57.8998 27.9998 57.9998 27.8998C58.0998 27.7998 58.2997 27.6998 58.5997 27.6998C58.8997 27.6998 59.0998 27.7998 59.1998 27.8998C59.2998 27.9998 59.3998 28.1998 59.3998 28.4998V30.5998H59.0997ZM58.4998 30.5998C58.5998 30.5998 58.7998 30.5998 58.8998 30.4998C58.9998 30.4998 59.0997 30.3998 59.0997 30.2998C59.1997 30.1998 59.1998 30.0998 59.1998 29.9998L59.0997 29.7998C59.0997 29.9998 59.0998 30.0998 58.9998 30.1998C58.8998 30.2998 58.7997 30.2998 58.5997 30.2998C58.3997 30.2998 58.2998 30.2998 58.1998 30.1998C58.0998 30.0998 58.0997 29.9998 58.0997 29.7998C58.0997 29.5998 58.0998 29.3998 58.1998 29.2998C58.2998 29.1998 58.3997 29.0998 58.5997 29.0998H59.0997V28.7998H58.5997C58.2997 28.7998 58.0998 28.8998 57.8998 28.9998C57.7998 29.1998 57.6998 29.3998 57.6998 29.6998C57.6998 29.9998 57.7998 30.1998 57.8998 30.2998C57.9998 30.5998 58.1998 30.5998 58.4998 30.5998ZM66.3998 30.5998H65.9998V28.3998L66.0997 28.4998L65.0997 30.5998H64.7997V27.7998H65.1998V29.9998L65.0997 29.8998L66.0997 27.6998H66.3998V30.5998ZM73.0997 30.5998V27.7998H73.4998V30.5998H73.0997ZM71.7997 30.5998V27.7998H72.1998V30.5998H71.7997ZM72.0997 29.3998H73.1998V28.9998H72.0997V29.3998ZM76.1998 30.5998C75.8998 30.5998 75.6997 30.4998 75.5997 30.3998C75.3997 30.1998 75.3998 29.9998 75.3998 29.6998V28.6998C75.3998 28.3998 75.4997 28.0998 75.5997 27.9998C75.6997 27.7998 75.9998 27.6998 76.1998 27.6998C76.4998 27.6998 76.6997 27.7998 76.7997 27.8998C76.8997 28.0998 76.9998 28.2998 76.9998 28.5998V29.2998H75.4998V28.8998H76.5997V28.5998C76.5997 28.3998 76.5998 28.2998 76.4998 28.1998C76.3998 28.0998 76.2998 28.0998 76.1998 28.0998C76.0998 28.0998 75.8998 28.1998 75.8998 28.2998C75.7998 28.3998 75.7997 28.5998 75.7997 28.6998V29.6998C75.7997 29.8998 75.7998 29.9998 75.8998 30.0998C75.9998 30.1998 76.0998 30.1998 76.1998 30.1998C76.2998 30.1998 76.3998 30.1998 76.4998 30.0998C76.5998 29.9998 76.5997 29.8998 76.5997 29.7998H76.9998C76.9998 30.0998 76.8997 30.2998 76.7997 30.3998C76.6997 30.5998 76.4998 30.5998 76.1998 30.5998ZM78.9998 31.7998V27.7998H79.3998V31.7998H78.9998ZM79.9998 30.5998C80.1998 30.5998 80.3998 30.4998 80.4998 30.3998C80.5998 30.1998 80.6998 29.9998 80.6998 29.6998V28.5998C80.6998 28.2998 80.5998 28.0998 80.4998 27.8998C80.3998 27.6998 80.1998 27.6998 79.9998 27.6998C79.8998 27.6998 79.6997 27.6998 79.5997 27.7998C79.4997 27.8998 79.3997 27.9998 79.2997 28.1998L79.3998 28.5998C79.3998 28.4998 79.3998 28.3998 79.4998 28.2998C79.4998 28.1998 79.5998 28.1998 79.6998 28.0998C79.7998 28.0998 79.8998 27.9998 79.8998 27.9998C79.9998 27.9998 80.1998 27.9998 80.1998 28.1998C80.2998 28.2998 80.2997 28.3998 80.2997 28.5998V29.6998C80.2997 29.8998 80.2998 29.9998 80.1998 30.0998C80.0998 30.1998 79.9998 30.2998 79.8998 30.2998C79.7998 30.2998 79.6998 30.2998 79.6998 30.1998C79.5998 30.1998 79.5998 30.0998 79.4998 29.9998C79.4998 29.8998 79.3998 29.7998 79.3998 29.6998V30.0998C79.3998 30.2998 79.4997 30.3998 79.5997 30.4998C79.6997 30.5998 79.8998 30.5998 79.9998 30.5998ZM84.9998 30.5998L84.1998 29.2998L84.4998 29.0998L85.3998 30.5998H84.9998ZM82.2997 30.5998L83.1998 29.0998L83.4998 29.2998L82.6998 30.5998H82.2997ZM83.1998 29.3998L83.4998 29.0998L82.7997 27.7998H82.3998L83.1998 29.3998ZM83.5997 30.5998V27.7998H83.9998V30.5998H83.5997ZM83.1998 29.3998H84.4998V29.0998H83.1998V29.3998ZM84.3998 29.3998L85.2997 27.7998H84.8998L84.1998 29.0998L84.3998 29.3998ZM88.3998 30.5998V28.4998C88.3998 28.2998 88.3997 28.1998 88.2997 28.0998C88.1997 27.9998 88.0998 27.9998 87.8998 27.9998C87.7998 27.9998 87.6997 27.9998 87.5997 28.0998C87.4997 28.1998 87.4998 28.2998 87.4998 28.4998H87.0997C87.0997 28.1998 87.1997 27.9998 87.2997 27.8998C87.3997 27.7998 87.5998 27.6998 87.8998 27.6998C88.1998 27.6998 88.3998 27.7998 88.4998 27.8998C88.5998 27.9998 88.6998 28.1998 88.6998 28.4998V30.5998H88.3998ZM87.7997 30.5998C87.8997 30.5998 88.0998 30.5998 88.1998 30.4998C88.2998 30.4998 88.3998 30.3998 88.3998 30.2998C88.4998 30.1998 88.4998 30.0998 88.4998 29.9998L88.3998 29.7998C88.3998 29.9998 88.3997 30.0998 88.2997 30.1998C88.1997 30.2998 88.0998 30.2998 87.8998 30.2998C87.6998 30.2998 87.5998 30.2998 87.4998 30.1998C87.3998 30.0998 87.3998 29.9998 87.3998 29.7998C87.3998 29.5998 87.3998 29.3998 87.4998 29.2998C87.5998 29.1998 87.6998 29.0998 87.8998 29.0998H88.3998V28.7998H87.8998C87.5998 28.7998 87.3998 28.8998 87.1998 28.9998C87.0998 29.1998 86.9998 29.3998 86.9998 29.6998C86.9998 29.9998 87.0998 30.1998 87.1998 30.2998C87.2998 30.5998 87.4997 30.5998 87.7997 30.5998ZM91.0997 30.5998V30.1998H91.7997C91.8997 30.1998 91.8998 30.1998 91.9998 30.0998C91.9998 30.0998 92.0997 29.9998 92.0997 29.8998V29.4998C92.0997 29.3998 92.0998 29.2998 91.9998 29.2998C91.8998 29.1998 91.8997 29.1998 91.7997 29.1998H91.1998V28.7998H91.7997C91.9997 28.7998 92.0997 28.6998 92.0997 28.4998V28.1998C92.0997 28.0998 91.9998 27.9998 91.8998 27.9998H91.1998V27.5998H91.8998C92.0998 27.5998 92.1997 27.5998 92.2997 27.6998C92.3997 27.7998 92.3998 27.8998 92.3998 28.0998V28.4998C92.3998 28.5998 92.3997 28.6998 92.2997 28.7998C92.1997 28.8998 92.1998 28.8998 91.9998 28.8998C92.0998 28.8998 92.1997 28.9998 92.2997 29.0998C92.3997 29.1998 92.3998 29.2998 92.3998 29.3998V29.7998C92.3998 29.9998 92.2998 30.0998 92.1998 30.1998C92.0998 30.2998 91.8997 30.2998 91.7997 30.2998H91.0997V30.5998ZM90.6998 30.5998H91.0997V27.7998H90.6998V30.5998ZM95.0997 30.5998C94.7997 30.5998 94.5998 30.4998 94.4998 30.3998C94.2998 30.1998 94.2997 29.9998 94.2997 29.6998V28.6998C94.2997 28.3998 94.3998 28.0998 94.4998 27.9998C94.5998 27.7998 94.8997 27.6998 95.0997 27.6998C95.3997 27.6998 95.5998 27.7998 95.6998 27.8998C95.7998 28.0998 95.8998 28.2998 95.8998 28.5998V29.2998H94.3998V28.8998H95.4998V28.5998C95.4998 28.3998 95.4998 28.2998 95.3998 28.1998C95.2998 28.0998 95.1997 28.0998 95.0997 28.0998C94.9997 28.0998 94.7997 28.1998 94.7997 28.2998C94.6997 28.3998 94.6998 28.5998 94.6998 28.6998V29.6998C94.6998 29.8998 94.6997 29.9998 94.7997 30.0998C94.8997 30.1998 94.9997 30.1998 95.0997 30.1998C95.1997 30.1998 95.2998 30.1998 95.3998 30.0998C95.4998 29.9998 95.4998 29.8998 95.4998 29.7998H95.8998C95.8998 30.0998 95.7998 30.2998 95.6998 30.3998C95.5998 30.5998 95.3997 30.5998 95.0997 30.5998ZM98.1998 29.3998V28.9998H98.9998V29.3998H98.1998ZM97.8998 30.5998H98.2997V27.7998H97.8998V30.5998ZM99.5997 30.5998C99.8997 30.5998 100.1 30.4998 100.2 30.3998C100.3 30.2998 100.4 30.0998 100.4 29.7998V28.4998C100.4 28.1998 100.3 27.9998 100.2 27.8998C100.1 27.7998 99.8997 27.6998 99.5997 27.6998C99.2997 27.6998 99.0998 27.7998 98.9998 27.8998C98.8998 27.9998 98.7997 28.1998 98.7997 28.4998V29.7998C98.7997 30.0998 98.8998 30.2998 98.9998 30.3998C99.0998 30.5998 99.2997 30.5998 99.5997 30.5998ZM99.5997 30.2998C99.4997 30.2998 99.3997 30.2998 99.2997 30.1998C99.1997 30.0998 99.1998 29.9998 99.1998 29.8998V28.5998C99.1998 28.4998 99.1997 28.3998 99.2997 28.2998C99.3997 28.1998 99.4997 28.1998 99.5997 28.1998C99.6997 28.1998 99.7998 28.1998 99.8998 28.2998C99.9998 28.3998 99.9998 28.4998 99.9998 28.5998V29.8998C99.9998 29.9998 99.9998 30.1998 99.8998 30.1998C99.7998 30.1998 99.6997 30.2998 99.5997 30.2998ZM102.6 30.5998V30.1998H104.3V30.5998H102.6ZM103.2 30.5998H103.6V27.7998H103.2V30.5998ZM102.4 30.5998H102.8V27.7998H102.4V30.5998ZM104.4 31.2998V30.1998H104.8V31.2998H104.4ZM104.1 30.5998H104.5V27.7998H104.1V30.5998ZM107.4 30.5998C107.1 30.5998 106.9 30.4998 106.8 30.3998C106.6 30.1998 106.6 29.9998 106.6 29.6998V28.6998C106.6 28.3998 106.7 28.0998 106.8 27.9998C106.9 27.7998 107.2 27.6998 107.4 27.6998C107.7 27.6998 107.9 27.7998 108 27.8998C108.1 28.0998 108.2 28.2998 108.2 28.5998V29.2998H106.7V28.8998H107.8V28.5998C107.8 28.3998 107.8 28.2998 107.7 28.1998C107.6 28.0998 107.5 28.0998 107.4 28.0998C107.3 28.0998 107.1 28.1998 107.1 28.2998C107 28.3998 107 28.5998 107 28.6998V29.6998C107 29.8998 107 29.9998 107.1 30.0998C107.2 30.1998 107.3 30.1998 107.4 30.1998C107.5 30.1998 107.7 30.1998 107.7 30.0998C107.8 29.9998 107.8 29.8998 107.8 29.7998H108.2C108.2 30.0998 108.1 30.2998 108 30.3998C107.8 30.5998 107.6 30.5998 107.4 30.5998ZM111.8 30.5998H111.4V28.3998L111.5 28.4998L110.5 30.5998H110.2V27.7998H110.6V29.9998L110.5 29.8998L111.5 27.6998H111.8V30.5998ZM110.9 27.1998C110.7 27.1998 110.5 27.0998 110.4 26.9998C110.3 26.8998 110.2 26.6998 110.2 26.4998V26.2998H110.6V26.4998C110.6 26.6998 110.7 26.8998 110.9 26.8998C111.1 26.8998 111.2 26.7998 111.2 26.4998V26.2998H111.6V26.4998C111.6 26.6998 111.5 26.8998 111.4 26.9998C111.4 27.1998 111.2 27.1998 110.9 27.1998ZM118 30.5998C117.7 30.5998 117.5 30.4998 117.4 30.3998C117.3 30.2998 117.2 29.9998 117.2 29.7998V28.5998C117.2 28.2998 117.3 28.0998 117.4 27.8998C117.5 27.6998 117.8 27.6998 118 27.6998C118.3 27.6998 118.5 27.7998 118.6 27.8998C118.8 28.0998 118.8 28.2998 118.8 28.5998H118.4C118.4 28.3998 118.4 28.2998 118.3 28.1998C118.2 28.0998 118.1 28.0998 117.9 28.0998C117.8 28.0998 117.6 28.0998 117.6 28.1998C117.5 28.2998 117.5 28.3998 117.5 28.5998V29.7998C117.5 29.9998 117.5 30.0998 117.6 30.1998C117.7 30.2998 117.8 30.2998 117.9 30.2998C118.1 30.2998 118.2 30.2998 118.3 30.1998C118.4 30.0998 118.4 29.9998 118.4 29.7998H118.8C118.8 30.0998 118.7 30.2998 118.6 30.3998C118.4 30.5998 118.2 30.5998 118 30.5998ZM120.9 30.5998V27.7998H121.3V30.5998H120.9ZM120.3 28.0998H121.8V27.6998H120.3V28.0998ZM125 30.5998V28.4998C125 28.2998 125 28.1998 124.9 28.0998C124.8 27.9998 124.7 27.9998 124.5 27.9998C124.4 27.9998 124.3 27.9998 124.2 28.0998C124.1 28.1998 124.1 28.2998 124.1 28.4998H123.7C123.7 28.1998 123.8 27.9998 123.9 27.8998C124 27.7998 124.2 27.6998 124.5 27.6998C124.8 27.6998 125 27.7998 125.1 27.8998C125.2 27.9998 125.3 28.1998 125.3 28.4998V30.5998H125ZM124.3 30.5998C124.4 30.5998 124.6 30.5998 124.7 30.4998C124.8 30.4998 124.9 30.3998 124.9 30.2998C125 30.1998 125 30.0998 125 29.9998L124.9 29.7998C124.9 29.9998 124.9 30.0998 124.8 30.1998C124.7 30.2998 124.6 30.2998 124.4 30.2998C124.2 30.2998 124.1 30.2998 124 30.1998C123.9 30.0998 123.9 29.9998 123.9 29.7998C123.9 29.5998 123.9 29.3998 124 29.2998C124.1 29.1998 124.2 29.0998 124.4 29.0998H124.9V28.7998H124.4C124.1 28.7998 123.9 28.8998 123.7 28.9998C123.6 29.1998 123.5 29.3998 123.5 29.6998C123.5 29.9998 123.6 30.1998 123.7 30.2998C123.9 30.5998 124.1 30.5998 124.3 30.5998ZM127.1 30.5998V30.1998C127.2 30.1998 127.2 30.1998 127.3 30.0998C127.3 29.9998 127.4 29.9998 127.4 29.8998V27.6998H127.8V29.8998C127.8 30.0998 127.7 30.2998 127.6 30.3998C127.5 30.5998 127.4 30.5998 127.1 30.5998ZM128.5 30.5998V27.7998H128.9V30.5998H128.5ZM127.7 28.0998H128.6V27.6998H127.7V28.0998ZM132.6 30.5998H132.2V28.3998L132.3 28.4998L131.3 30.5998H131V27.7998H131.4V29.9998L131.3 29.8998L132.3 27.6998H132.6V30.5998Z" fill="white"/>
<path d="M14.1519 22.635C12.6478 23.4111 11.0064 23.7991 9.22759 23.7991C6.85815 23.7991 5.02785 23.1055 3.73667 21.7182C2.4455 20.3308 1.79991 18.3597 1.79991 15.8049C1.79991 13.2569 2.4558 11.2858 3.76758 9.89156C5.08622 8.4905 6.944 7.78997 9.34091 7.78997C10.7008 7.78997 12.2976 8.01318 14.1313 8.4596V10.4891C12.0434 9.76794 10.4329 9.40737 9.2997 9.40737C7.64453 9.40737 6.36366 9.96711 5.45709 11.0866C4.55052 12.2061 4.09724 13.7857 4.09724 15.8255C4.09724 17.776 4.58143 19.3109 5.54981 20.4304C6.51819 21.5499 7.8437 22.1096 9.52635 22.1096C10.9617 22.1096 12.5036 21.6666 14.1519 20.7807V22.635ZM20.6586 23.418V10.4511H15.513V8.91231H27.8625V10.4511H22.7169V23.418H20.6586ZM29.9109 23.418V8.91231H38.0164V10.4511H31.9691V15.1066H37.0363V16.6258H31.9691V21.8792H38.4379V23.418H29.9109ZM42.8484 16.7042V23.418H40.7901V8.91231H42.8484V15.1752H42.9464C43.4887 15.1752 43.8971 15.0445 44.1715 14.7832C44.446 14.5153 44.9229 13.8031 45.6025 12.6465L46.22 11.588L46.7296 10.6863C47.1151 10.0264 47.5039 9.56571 47.896 9.30435C48.288 9.03645 48.7781 8.90251 49.3661 8.90251L49.621 8.91231V10.4217C49.5491 10.4151 49.4968 10.4119 49.4641 10.4119C48.9545 10.4119 48.4252 10.9052 47.8764 11.8918L47.4941 12.5877L47.1903 13.117C46.6937 14.0056 46.3114 14.6166 46.0435 14.9498C45.7756 15.283 45.4359 15.5771 45.0242 15.8319C45.7299 16.0671 46.2788 16.4069 46.6708 16.8512C47.0694 17.289 47.5627 18.109 48.1508 19.3113L48.6506 20.3208C48.7094 20.445 48.8924 20.8272 49.1995 21.4675C49.5458 22.2059 49.8823 22.856 50.209 23.418H48.0332L47.8764 23.1141L47.2393 21.8302L46.416 20.1444C45.5731 18.4325 44.7171 17.2857 43.8481 16.7042H42.8484ZM51.1205 23.418V21.6048C52.5254 21.4087 53.4467 20.6606 53.8844 19.3603C54.3418 18.0077 54.5705 14.8322 54.5705 9.83361V8.91231H63.0289V23.418H60.9707V10.4217H56.619V10.7451C56.619 15.1491 56.3707 18.1417 55.8741 19.7229C55.4951 20.9252 54.943 21.8106 54.2177 22.379C53.4924 22.941 52.46 23.2873 51.1205 23.418ZM72.7124 23.7806C70.6542 23.7806 69.0076 23.0913 67.7726 21.7126C66.5442 20.3273 65.93 18.4782 65.93 16.1651C65.93 13.8521 66.5442 12.0062 67.7726 10.6275C69.0076 9.24228 70.6542 8.54966 72.7124 8.54966C74.7706 8.54966 76.414 9.24228 77.6424 10.6275C78.8773 12.0062 79.4948 13.8521 79.4948 16.1651C79.4948 18.4782 78.8773 20.3273 77.6424 21.7126C76.414 23.0913 74.7706 23.7806 72.7124 23.7806ZM72.7124 22.2418C74.1564 22.2418 75.2836 21.706 76.0938 20.6344C76.904 19.5563 77.3091 18.06 77.3091 16.1455C77.3091 14.2441 76.904 12.7609 76.0938 11.6958C75.2836 10.6242 74.1564 10.0884 72.7124 10.0884C71.2684 10.0884 70.1412 10.6242 69.331 11.6958C68.5208 12.7609 68.1157 14.2441 68.1157 16.1455C68.1157 18.06 68.5208 19.5563 69.331 20.6344C70.1412 21.706 71.2684 22.2418 72.7124 22.2418ZM92.1872 23.418V10.4511H87.0416V8.91231H99.3911V10.4511H94.2455V23.418H92.1872ZM99.7341 23.418L105.487 8.91231H107.526L113.191 23.418H110.966L109.388 19.3995H103.243L101.645 23.418H99.7341ZM103.841 17.8705H108.79L106.32 11.6174L103.841 17.8705ZM113.73 23.418V21.6048C115.135 21.4087 116.056 20.6606 116.494 19.3603C116.951 18.0077 117.18 14.8322 117.18 9.83361V8.91231H125.638V23.418H123.58V10.4217H119.229V10.7451C119.229 15.1491 118.98 18.1417 118.484 19.7229C118.105 20.9252 117.553 21.8106 116.827 22.379C116.102 22.941 115.07 23.2873 113.73 23.418ZM129.392 23.418V8.91231H131.451V15.136H132.558C133.708 15.136 134.544 15.185 135.067 15.283C135.59 15.3745 136.086 15.5705 136.557 15.8711C137.668 16.5768 138.223 17.619 138.223 18.9977C138.223 20.6116 137.593 21.8139 136.331 22.6045C135.469 23.1468 134.035 23.418 132.029 23.418H129.392ZM131.451 21.9086H132.176C133.587 21.9086 134.571 21.706 135.126 21.3009C135.819 20.7913 136.165 20.0693 136.165 19.1349C136.165 18.2593 135.871 17.6255 135.283 17.2335C134.701 16.8414 133.76 16.6454 132.46 16.6454H131.451V21.9086Z" fill="white"/>
<path fill-rule="evenodd" clip-rule="evenodd" d="M76.6996 3.99982C80.8996 4.09982 79.2997 4.29984 81.8997 1.89984C81.6997 2.79984 74.9996 16.9998 74.5996 18.1998L80.8997 11.4998C82.9997 9.09982 87.2996 4.89979 89.0996 2.59979L88.8997 1.7998H76.1996C76.4996 2.6998 76.5996 3.39982 76.6996 3.99982Z" fill="white"/>
<path fill-rule="evenodd" clip-rule="evenodd" d="M76.6996 21.8001C80.8996 21.7001 79.2997 21.5001 81.8997 23.9001C81.6997 23.0001 74.9996 8.8001 74.5996 7.6001L80.8997 14.3001C82.9997 16.7001 87.2996 20.9001 89.0996 23.2001L88.8997 24.0001H76.1996C76.4996 23.2001 76.5996 22.5001 76.6996 21.8001Z" fill="white"/>
</svg>
