<svg width="18" height="19" viewBox="0 0 18 19" fill="none" xmlns="http://www.w3.org/2000/svg">
<path fill-rule="evenodd" clip-rule="evenodd" d="M1.15598 2.49995C1.05598 2.59995 1.056 2.69994 0.955996 2.79994C0.855996 2.89994 0.955984 2.79998 0.755984 2.89998C0.755984 3.19998 0.45599 3.49998 0.35599 3.89998C0.25599 4.19998 0.156002 4.59998 0.0560019 4.89998C-0.143998 5.99998 0.255984 6.69994 0.255984 7.29994C0.355984 7.39994 0.255996 7.19995 0.455996 7.49995C0.455996 7.59995 0.456002 7.59997 0.556002 7.69997C0.656002 7.89997 0.655977 7.99997 0.655977 8.19997C0.755978 8.39997 1.05598 9.29993 1.25598 9.59993C1.55598 10.2999 1.85599 10.7 1.85599 11C2.15599 11.2 2.15599 11.3999 2.35599 11.5999C2.45599 11.7999 2.65598 12 2.75598 12.2C3.05598 12.6 3.45598 13 3.65598 13.4C3.95598 13.4 3.956 13.5 3.956 13.7C4.156 13.8 3.95598 13.6999 4.15598 13.7999L4.25598 13.9L5.056 14.7999C5.356 14.8999 5.15599 14.7 5.35599 15L5.65598 15.2C5.95598 15.5 6.056 15.4 6.456 15.9C6.556 15.9 6.55598 15.9 6.65598 16C6.75598 16.1 6.65598 15.9999 6.75598 16.0999C7.15598 16.1999 7.556 16.6 8.056 16.9C8.256 17 8.45598 17.1 8.65598 17.2C8.75598 17.3 8.956 17.3 9.056 17.4L9.35599 17.5999C9.65599 17.5999 10.556 17.9999 10.856 18.0999C11.256 18.1999 11.556 18.4 12.056 18.5C12.456 18.6 13.056 18.5999 13.356 18.7999C13.756 18.6999 14.256 18.7 14.756 18.5C15.156 18.4 15.656 18.1 15.956 18C16.056 17.9 15.956 17.8999 16.056 17.7999L16.256 17.7C16.456 17.6 16.456 17.6 16.656 17.5C16.656 17.4 16.656 17.4 16.856 17.2C17.256 16.8 17.256 16.8999 17.456 16.2999C17.656 15.6999 17.656 15.2 17.756 14.7C17.656 14.6 17.656 14.7 17.556 14.5C17.456 14.4 17.556 14.3999 17.456 14.2999C17.156 14.2999 16.756 13.9999 16.456 13.7999L13.756 12.2C12.556 11.8 11.356 15.2 10.656 14.2C9.55598 13.9 7.45599 12.3 6.85599 11.7C6.25599 11.1 4.75599 9.09998 4.35599 7.89998C4.15599 7.59998 4.256 7.39997 4.456 7.19997C5.656 5.89997 6.95598 5.69995 6.25598 4.49995L4.75598 1.99995C4.25598 1.09995 4.15598 0.499942 2.15598 1.29994C1.55598 1.49994 1.55598 1.69995 1.25598 1.99995C1.15598 2.49995 1.25598 2.39995 1.15598 2.49995Z" fill="#6EC9E8"/>
</svg>
