<svg width="19" height="19" viewBox="0 0 19 19" fill="none" xmlns="http://www.w3.org/2000/svg">
<path fill-rule="evenodd" clip-rule="evenodd" d="M1.6107 8.94306C1.6107 10.3431 1.51071 10.843 2.01071 12.143C2.11071 12.543 2.21071 12.6431 2.31071 12.9431C2.81071 13.8431 2.61071 13.543 2.31071 14.643C2.21071 15.243 1.6107 17.143 1.6107 17.643C2.2107 17.643 4.61071 16.943 5.51071 16.743C6.51071 16.543 6.2107 17.643 10.4107 17.643C11.9107 17.643 13.6107 16.8431 14.7107 15.9431L15.8107 14.9431C18.0107 12.5431 18.6107 8.94306 17.1107 5.94306C16.7107 5.14306 16.1107 4.24301 15.4107 3.64301C12.6107 1.04301 8.51071 0.543047 5.21071 2.74305C3.31071 4.04305 1.6107 6.64306 1.6107 8.94306Z" stroke="#6EC9E8" stroke-width="0.5669" stroke-miterlimit="22.9256"/>
<path fill-rule="evenodd" clip-rule="evenodd" d="M2.01094 8.94318V9.44318C2.01094 10.4432 2.01093 10.9432 2.41093 12.0432C2.51093 12.2432 2.51094 12.3432 2.51094 12.4432C2.51094 12.5432 2.61094 12.6431 2.71094 12.8431V12.9432C2.91094 13.3432 3.01094 13.5431 3.01094 13.8431C3.01094 14.0431 3.01093 14.1431 2.91093 14.3431C2.91093 14.4431 2.81094 14.6432 2.71094 14.9432C2.71094 15.0432 2.61094 15.3431 2.51094 15.6431C2.41094 16.1431 2.21093 16.8432 2.11093 17.2432C2.61093 17.1432 3.31094 16.9431 4.01094 16.8431C4.61094 16.7431 5.11094 16.5432 5.51094 16.4432C6.01094 16.3432 6.31093 16.4431 6.61093 16.6431C7.11093 16.8431 7.81093 17.2432 10.4109 17.2432C11.0109 17.2432 11.7109 17.0431 12.4109 16.8431C13.2109 16.5431 13.9109 16.1432 14.5109 15.7432L15.5109 14.7432C16.5109 13.6432 17.2109 12.1431 17.4109 10.6431C17.6109 9.14313 17.4109 7.64316 16.7109 6.24316C16.5109 5.84316 16.2109 5.44315 16.0109 5.04315C15.7109 4.64315 15.5109 4.34315 15.2109 4.04315C13.9109 2.74315 12.2109 2.04318 10.5109 1.94318C8.81094 1.74318 7.11094 2.24316 5.51094 3.24316C4.61094 3.84316 3.71094 4.84318 3.01094 5.94318C2.41094 6.84318 2.01094 7.94318 2.01094 8.94318ZM1.21094 9.44318V8.94318C1.21094 7.74318 1.61094 6.54314 2.31094 5.34314C3.01094 4.14314 4.01094 3.14318 5.01094 2.44318C6.71094 1.34318 8.61094 0.843152 10.5109 1.04315C12.4109 1.24315 14.2109 2.04318 15.7109 3.44318C16.0109 3.74318 16.4109 4.14315 16.6109 4.54315C16.9109 4.94315 17.2109 5.44318 17.4109 5.94318C18.2109 7.44318 18.4109 9.24314 18.2109 10.8431C18.0109 12.5431 17.2109 14.1431 16.1109 15.3431L15.0109 16.3431C14.4109 16.8431 13.6109 17.2431 12.7109 17.6431C12.0109 17.9431 11.2109 18.1431 10.4109 18.1431C7.61093 18.1431 6.81094 17.6432 6.21094 17.4432C6.01094 17.3432 5.81093 17.2431 5.61093 17.3431C5.31093 17.4431 4.81094 17.5431 4.21094 17.6431C3.21094 17.9431 2.11093 18.1431 1.61093 18.1431H1.21094V17.7432C1.21094 17.3432 1.51094 16.2432 1.81094 15.4432C1.91094 15.1432 1.91094 14.9432 2.01094 14.7432C2.11094 14.4432 2.21094 14.2432 2.21094 14.0432C2.21094 13.9432 2.31094 13.8431 2.31094 13.8431C2.31094 13.8431 2.21093 13.6431 2.11093 13.3431V13.2432C2.01093 13.0432 2.01093 12.9431 1.91093 12.8431C1.81093 12.6431 1.81094 12.5431 1.71094 12.3431C1.21094 11.1431 1.21094 10.5432 1.21094 9.44318Z" stroke="#6EC9E8" stroke-width="0.5669" stroke-miterlimit="22.9256"/>
<path fill-rule="evenodd" clip-rule="evenodd" d="M5.61133 7.44287C5.61133 8.84287 5.71134 8.94282 6.51134 10.1428C7.11134 11.0428 8.51133 12.4429 9.61133 12.9429C10.8113 13.4429 12.3113 14.0428 13.4113 13.0428C13.6113 12.8428 13.7113 12.8429 13.8113 12.4429C13.9113 12.2429 13.9113 11.8428 14.0113 11.6428C13.6113 11.4428 12.4113 10.6428 11.9113 10.6428C11.8113 10.6428 11.0113 11.6429 10.9113 11.7429C10.0113 11.2429 10.1113 11.4429 9.11133 10.7429C8.81133 10.5429 7.91133 9.44282 7.91133 9.14282C7.91133 8.54282 8.91134 8.74287 8.31134 7.44287C7.81134 6.34287 7.81133 5.94287 7.11133 5.94287C6.71133 5.94287 6.41133 6.24287 6.21133 6.44287C5.91133 6.64287 5.61133 7.04287 5.61133 7.44287Z" fill="#6EC9E8" stroke="#6EC9E8" stroke-width="0.5669" stroke-miterlimit="22.9256"/>
</svg>
